<?xml version="1.0" encoding="UTF-8" standalone="no"?>
<!-- Generator: Adobe Illustrator 12.0.0, SVG Export Plug-In . SVG Version: 6.00 Build 51448)  -->
<svg
   xmlns:dc="http://purl.org/dc/elements/1.1/"
   xmlns:cc="http://web.resource.org/cc/"
   xmlns:rdf="http://www.w3.org/1999/02/22-rdf-syntax-ns#"
   xmlns:svg="http://www.w3.org/2000/svg"
   xmlns="http://www.w3.org/2000/svg"
   xmlns:sodipodi="http://sodipodi.sourceforge.net/DTD/sodipodi-0.dtd"
   xmlns:inkscape="http://www.inkscape.org/namespaces/inkscape"
   version="1.1"
   id="Layer_1"
   width="198.883"
   height="53.305"
   viewBox="0 0 198.883 53.305"
   overflow="visible"
   enable-background="new 0 0 198.883 53.305"
   xml:space="preserve"
   sodipodi:version="0.32"
   inkscape:version="0.45pre1"
   sodipodi:docname="Dataved_Logo.svg"
   inkscape:output_extension="org.inkscape.output.svg.inkscape"
   sodipodi:docbase="C:\Users\Alexei\AppData\Local\Temp\7zOAE86.tmp"
   sodipodi:modified="true"><metadata
   id="metadata110"><rdf:RDF><cc:Work
       rdf:about=""><dc:format>image/svg+xml</dc:format><dc:type
         rdf:resource="http://purl.org/dc/dcmitype/StillImage" /></cc:Work></rdf:RDF></metadata><defs
   id="defs108" /><sodipodi:namedview
   inkscape:window-height="575"
   inkscape:window-width="1106"
   inkscape:pageshadow="2"
   inkscape:pageopacity="0.0"
   guidetolerance="10.0"
   gridtolerance="10.0"
   objecttolerance="10.0"
   borderopacity="1.0"
   bordercolor="#666666"
   pagecolor="#ffffff"
   id="base"
   inkscape:zoom="4.1029149"
   inkscape:cx="99.441498"
   inkscape:cy="26.6525"
   inkscape:window-x="100"
   inkscape:window-y="100"
   inkscape:current-layer="g29" />
<g
   id="g3">
	<g
   id="g5">
		<path
   d="M69.368,30.652h-6.713l-2.65-6.946H47.799l-2.531,6.946h-6.548L50.611,0.064h6.581L69.368,30.652z M58.021,18.526    L53.816,7.194l-4.13,11.332H58.021z"
   id="path7" />
	</g>
	<g
   id="g9">
		<path
   d="M31.685,25.214l1.208-0.001l2.129,5.438H0.707l2.129-5.438l1.209,0.001L15.381,0.098h4.965L31.685,25.214z M25.437,25.214    L17.864,7.96l-7.572,17.254H25.437z"
   id="path11" />
	</g>
	<g
   id="g13">
		<path
   d="M120.794,0.038h7.141c1.846,0,10.311,0.041,10.311,8.069c0,3.807-2.447,5.38-3.25,5.834    c3.209,1.117,5.055,3.972,5.055,7.406c0,4.428-2.326,9.311-11.834,9.311h-7.422V0.038z M128.857,11.83    c3.61,0,3.892-2.358,3.892-3.145c0-2.979-2.688-3.145-3.892-3.145h-2.567v6.289H128.857z M129.86,25.154    c0.643,0,4.693-0.041,4.693-3.848c0-1.158-0.4-3.973-4.693-3.973h-3.57v7.82H129.86z"
   id="path15" />
	</g>
	<polygon
   points="143.817,0.001 160.679,0.001 160.679,5.509 149.637,5.509 149.638,11.337 160.702,11.338 160.702,16.949    149.64,16.949 149.637,25.142 160.679,25.142 160.679,30.652 143.817,30.652  "
   id="polygon17" />
	<g
   id="g19">
		<path
   d="M116.894,30.652h-6.713l-2.65-6.946H95.324l-2.531,6.946h-6.548l11.89-30.587h6.581L116.894,30.652z M105.546,18.526    l-4.205-11.332l-4.13,11.332H105.546z"
   id="path21" />
	</g>
	<polygon
   points="74.968,30.646 74.961,5.51 66.364,5.51 64.211,0.009 91.728,0.004 89.572,5.51 80.787,5.509 80.779,30.652  "
   id="polygon23" />
	<g
   id="g25">
		<path
   d="M195.462,25.214l1.209-0.001l2.129,5.438h-34.315l2.129-5.438l1.208,0.001l11.338-25.117h4.965L195.462,25.214z     M189.214,25.214L181.642,7.96l-7.572,17.254H189.214z"
   id="path27" />
	</g>
</g>
<g
   id="g29">
	<g
   id="g31">
		<path
   fill="#3399BB"
   d="M68.662,30.651h-6.713l-2.651-6.946H47.093l-2.531,6.946h-6.548L49.905,0.064h6.581L68.662,30.651z     M57.314,18.525L53.109,7.193l-4.13,11.332H57.314z"
   id="path33" />
	</g>
	<g
   id="g35">
		<path
   fill="#3399BB"
   d="M30.978,25.213l1.208-0.001l2.129,5.438H0l2.129-5.438l1.208,0.001L14.675,0.097h4.965L30.978,25.213z     M24.73,25.213L17.158,7.959L9.585,25.213H24.73z"
   id="path37" />
	</g>
	<g
   id="g39">
		<path
   fill="#3399BB"
   d="M120.087,0.038h7.141c1.846,0,10.311,0.041,10.311,8.068c0,3.807-2.447,5.38-3.249,5.835    c3.209,1.117,5.055,3.972,5.055,7.407c0,4.428-2.327,9.31-11.835,9.31h-7.422V0.038z M128.15,11.83    c3.611,0,3.892-2.358,3.892-3.145c0-2.979-2.688-3.145-3.892-3.145h-2.567v6.29H128.15z M129.153,25.154    c0.643,0,4.693-0.041,4.693-3.848c0-1.159-0.4-3.973-4.693-3.973h-3.57v7.821H129.153z"
   id="path41" />
	</g>
	<polygon
   fill="#3399BB"
   points="143.111,0 159.973,0 159.973,5.509 148.93,5.509 148.931,11.337 159.996,11.337 159.996,16.948    148.933,16.948 148.93,25.142 159.973,25.142 159.973,30.651 143.111,30.651  "
   id="polygon43" />
	<g
   id="g45">
		<path
   fill="#3399BB"
   d="M116.187,30.651h-6.713l-2.65-6.946H94.618l-2.531,6.946h-6.548l11.89-30.587h6.582L116.187,30.651z     M104.839,18.525l-4.205-11.332l-4.129,11.332H104.839z"
   id="path47" />
	</g>
	<polygon
   fill="#3399BB"
   points="74.262,30.646 74.254,5.51 65.658,5.51 63.505,0.009 91.021,0.004 88.866,5.51 80.08,5.509    80.072,30.651  "
   id="polygon49" />
	<g
   id="g51">
		<path
   fill="#3399BB"
   d="M194.756,25.213l1.208-0.001l2.129,5.438h-34.315l2.129-5.438l1.209,0.001l11.337-25.117h4.966    L194.756,25.213z M188.507,25.213l-7.572-17.254l-7.572,17.254H188.507z"
   id="path53" />
	</g>
</g>
<line
   fill="none"
   stroke="#000000"
   x1="0.006"
   y1="37.983"
   x2="198.883"
   y2="37.983"
   id="line55" />
<g
   id="g57">
	<path
   d="M0.864,44.893l1.512,3.769c0.156,0.408,0.312,0.863,0.42,1.236H2.82c0.12-0.361,0.264-0.805,0.444-1.272l1.404-3.732H5.28   l-1.728,4.296c-0.696,1.789-1.188,2.856-1.944,3.516c-0.456,0.385-0.864,0.553-1.008,0.601l-0.18-0.479   c0.288-0.108,0.672-0.313,1.008-0.637c0.288-0.287,0.672-0.768,0.96-1.451c0.048-0.133,0.072-0.192,0.072-0.252   c0-0.061-0.024-0.133-0.072-0.252l-2.136-5.341H0.864z"
   id="path59" />
	<path
   d="M13.127,44.893v5.761h-0.576v-5.281H9.299v5.281H8.723v-5.761H13.127z"
   id="path61" />
	<path
   d="M17.424,46.73c0-0.721-0.024-1.297-0.048-1.837h0.54l0.048,1.093h0.024c0.408-0.769,1.116-1.225,2.124-1.225   c1.476,0,2.472,1.225,2.472,2.916c0,2.064-1.224,3.107-2.616,3.107c-0.828,0-1.56-0.371-1.956-1.067h-0.024v3.312h-0.564V46.73z    M17.988,48.385c0,0.156,0.024,0.312,0.048,0.456c0.24,0.889,1.008,1.464,1.896,1.464c1.32,0,2.076-1.067,2.076-2.604   c0-1.295-0.72-2.471-2.028-2.471c-0.84,0-1.656,0.588-1.908,1.535c-0.036,0.156-0.084,0.336-0.084,0.492V48.385z"
   id="path63" />
	<path
   d="M30.023,49.285c0,0.457,0.024,0.925,0.084,1.369h-0.516l-0.084-0.828h-0.036c-0.276,0.443-0.912,0.959-1.836,0.959   c-1.152,0-1.692-0.815-1.692-1.584c0-1.332,1.176-2.135,3.516-2.111v-0.145c0-0.576-0.108-1.715-1.476-1.703   c-0.504,0-1.032,0.131-1.44,0.432l-0.18-0.42c0.516-0.348,1.164-0.492,1.68-0.492c1.668,0,1.98,1.248,1.98,2.28V49.285z    M29.459,47.57c-1.26-0.037-2.916,0.155-2.916,1.535c0,0.828,0.552,1.2,1.152,1.2c0.96,0,1.5-0.588,1.704-1.151   c0.036-0.121,0.06-0.24,0.06-0.349V47.57z"
   id="path65" />
	<path
   d="M34.247,44.953c0.408-0.071,0.996-0.119,1.536-0.119c0.96,0,2.376,0.191,2.376,1.428c0,0.684-0.516,1.176-1.2,1.332v0.023   c0.828,0.108,1.476,0.564,1.476,1.44c0,1.44-1.704,1.656-2.808,1.656c-0.54,0-1.092-0.036-1.38-0.048V44.953z M34.775,50.173   c0.36,0.036,0.624,0.048,0.984,0.048c0.768,0,2.1-0.144,2.1-1.164c0-1.032-1.08-1.188-2.16-1.188h-0.924V50.173z M34.787,47.414   h0.972c0.816,0,1.824-0.264,1.824-1.092c0-0.696-0.624-0.996-1.86-0.996c-0.432,0-0.672,0.035-0.936,0.06V47.414z"
   id="path67" />
	<path
   d="M46.319,44.893v5.761h-0.576v-5.281h-2.424v1.729c0,1.752-0.156,2.893-0.984,3.372c-0.228,0.132-0.432,0.228-0.804,0.228   l-0.048-0.467c0.168-0.024,0.372-0.097,0.528-0.192c0.66-0.421,0.732-1.404,0.732-2.892v-2.257H46.319z"
   id="path69" />
	<path
   d="M50.699,47.713c0,1.849,1.008,2.567,2.196,2.567c0.84,0,1.272-0.168,1.596-0.323l0.144,0.456   c-0.216,0.119-0.804,0.371-1.812,0.371c-1.656,0-2.688-1.211-2.688-2.903c0-1.92,1.104-3.12,2.592-3.12   c1.884,0,2.244,1.775,2.244,2.604c0,0.156,0,0.252-0.024,0.349H50.699z M54.371,47.257c0.012-0.805-0.324-2.027-1.716-2.027   c-1.272,0-1.824,1.139-1.92,2.027H54.371z"
   id="path71" />
	<path
   d="M59.363,44.893v2.472h3.312v-2.472h0.564v5.761h-0.564v-2.809h-3.312v2.809h-0.576v-5.761H59.363z"
   id="path73" />
	<path
   d="M67.823,44.893v2.028c0,0.779,0.312,1.38,1.404,1.38c0.552,0,1.128-0.192,1.536-0.492v-2.916h0.564v5.832h-0.564v-2.448   h-0.024c-0.42,0.289-1.08,0.492-1.632,0.492c-1.008,0-1.86-0.468-1.86-1.752v-2.124H67.823z"
   id="path75" />
	<path
   d="M75.707,47.713c0,1.849,1.008,2.567,2.196,2.567c0.84,0,1.272-0.168,1.596-0.323l0.144,0.456   c-0.216,0.119-0.804,0.371-1.812,0.371c-1.656,0-2.688-1.211-2.688-2.903c0-1.92,1.104-3.12,2.592-3.12   c1.884,0,2.244,1.775,2.244,2.604c0,0.156,0,0.252-0.024,0.349H75.707z M79.379,47.257c0.012-0.805-0.324-2.027-1.716-2.027   c-1.272,0-1.824,1.139-1.92,2.027H79.379z"
   id="path77" />
	<path
   d="M87.85,50.402c-0.252,0.131-0.852,0.383-1.68,0.383c-1.668,0-2.772-1.211-2.772-2.951c0-1.824,1.248-3.072,2.976-3.072   c0.708,0,1.284,0.204,1.512,0.359l-0.204,0.469c-0.288-0.156-0.731-0.336-1.368-0.336c-1.548,0-2.34,1.188-2.34,2.544   c0,1.5,0.948,2.483,2.28,2.483c0.684,0,1.128-0.191,1.439-0.323L87.85,50.402z"
   id="path79" />
	<path
   d="M92.195,44.893v2.628h0.288l2.604-2.628h0.769l-2.761,2.677c1.093,0.096,1.729,0.695,2.257,1.859   c0.132,0.313,0.312,0.805,0.563,1.225h-0.612c-0.144-0.252-0.384-0.732-0.539-1.117c-0.48-1.104-1.129-1.584-2.341-1.584h-0.228   v2.701H91.63v-5.761H92.195z"
   id="path81" />
	<path
   d="M99.922,44.893v2.845c0,0.899,0,1.428-0.048,2.279l0.023,0.012c0.408-0.72,0.624-1.115,1.105-1.836l2.219-3.3h0.625v5.761   h-0.564v-2.881c0-0.959,0.012-1.523,0.061-2.279h-0.025c-0.479,0.828-0.779,1.332-1.188,1.955c-0.66,0.937-1.416,2.113-2.16,3.205   h-0.612v-5.761H99.922z"
   id="path83" />
	<path
   d="M108.659,44.893v2.845c0,0.899,0,1.428-0.049,2.279l0.023,0.012c0.408-0.72,0.625-1.115,1.105-1.836l2.219-3.3h0.625v5.761   h-0.564v-2.881c0-0.959,0.012-1.523,0.061-2.279h-0.025c-0.479,0.828-0.779,1.332-1.188,1.955c-0.66,0.937-1.416,2.113-2.16,3.205   h-0.611v-5.761H108.659z M109.403,42.553c0.047,0.517,0.336,0.96,0.91,0.96c0.613,0,0.889-0.432,0.949-0.96h0.516   c-0.049,0.899-0.623,1.368-1.488,1.368c-1.02,0-1.367-0.672-1.416-1.368H109.403z"
   id="path85" />
	<path
   d="M122.47,44.893v2.628h0.289l2.604-2.628h0.768l-2.76,2.677c1.092,0.096,1.729,0.695,2.256,1.859   c0.133,0.313,0.313,0.805,0.564,1.225h-0.613c-0.143-0.252-0.383-0.732-0.539-1.117c-0.48-1.104-1.129-1.584-2.34-1.584h-0.229   v2.701h-0.564v-5.761H122.47z"
   id="path87" />
	<path
   d="M134.53,47.713c0,2.16-1.477,3.071-2.76,3.071c-1.488,0-2.641-1.164-2.641-2.963c0-1.98,1.297-3.061,2.725-3.061   C133.45,44.761,134.53,45.949,134.53,47.713z M129.706,47.785c0,1.44,0.924,2.521,2.1,2.521c1.201,0,2.148-1.08,2.148-2.556   c0-1.057-0.6-2.52-2.111-2.52C130.378,45.23,129.706,46.549,129.706,47.785z"
   id="path89" />
	<path
   d="M138.923,44.893v2.472h3.313v-2.472h0.563v5.761h-0.563v-2.809h-3.313v2.809h-0.576v-5.761H138.923z"
   id="path91" />
	<path
   d="M151.067,50.402c-0.252,0.131-0.854,0.383-1.682,0.383c-1.668,0-2.771-1.211-2.771-2.951c0-1.824,1.248-3.072,2.977-3.072   c0.707,0,1.283,0.204,1.512,0.359l-0.203,0.469c-0.289-0.156-0.732-0.336-1.369-0.336c-1.547,0-2.34,1.188-2.34,2.544   c0,1.5,0.947,2.483,2.279,2.483c0.686,0,1.129-0.191,1.441-0.323L151.067,50.402z"
   id="path93" />
	<path
   d="M158.423,49.285c0,0.457,0.023,0.925,0.084,1.369h-0.516l-0.084-0.828h-0.037c-0.275,0.443-0.912,0.959-1.836,0.959   c-1.152,0-1.691-0.815-1.691-1.584c0-1.332,1.176-2.135,3.516-2.111v-0.145c0-0.576-0.107-1.715-1.477-1.703   c-0.504,0-1.031,0.131-1.439,0.432l-0.18-0.42c0.516-0.348,1.164-0.492,1.68-0.492c1.668,0,1.98,1.248,1.98,2.28V49.285z    M157.858,47.57c-1.26-0.037-2.916,0.155-2.916,1.535c0,0.828,0.553,1.2,1.152,1.2c0.959,0,1.5-0.588,1.703-1.151   c0.037-0.121,0.061-0.24,0.061-0.349V47.57z"
   id="path95" />
	<path
   d="M166.667,44.893v5.761h-0.576v-5.281h-2.424v1.729c0,1.752-0.156,2.893-0.984,3.372c-0.229,0.132-0.432,0.228-0.805,0.228   l-0.047-0.467c0.168-0.024,0.371-0.097,0.527-0.192c0.66-0.421,0.732-1.404,0.732-2.892v-2.257H166.667z"
   id="path97" />
	<path
   d="M174.431,44.893v0.479h-1.873v5.281h-0.576v-5.281h-1.871v-0.479H174.431z"
   id="path99" />
	<path
   d="M178.343,44.893v2.845c0,0.899,0,1.428-0.049,2.279l0.023,0.012c0.408-0.72,0.625-1.115,1.105-1.836l2.219-3.3h0.625v5.761   h-0.564v-2.881c0-0.959,0.012-1.523,0.061-2.279h-0.025c-0.479,0.828-0.779,1.332-1.188,1.955c-0.66,0.937-1.416,2.113-2.16,3.205   h-0.611v-5.761H178.343z"
   id="path101" />
	<path
   d="M187.089,44.893v2.472h3.313v-2.472h0.564v5.761h-0.564v-2.809h-3.313v2.809h-0.576v-5.761H187.089z"
   id="path103" />
	<path
   d="M198.466,44.893v0.479h-2.676v5.281h-0.576v-5.761H198.466z"
   id="path105" />
</g>
</svg>