<?xml version="1.0" encoding="UTF-8" standalone="no"?>
<!-- Generator: Adobe Illustrator 12.0.0, SVG Export Plug-In . SVG Version: 6.00 Build 51448)  -->
<svg
   xmlns:dc="http://purl.org/dc/elements/1.1/"
   xmlns:cc="http://web.resource.org/cc/"
   xmlns:rdf="http://www.w3.org/1999/02/22-rdf-syntax-ns#"
   xmlns:svg="http://www.w3.org/2000/svg"
   xmlns="http://www.w3.org/2000/svg"
   xmlns:sodipodi="http://sodipodi.sourceforge.net/DTD/sodipodi-0.dtd"
   xmlns:inkscape="http://www.inkscape.org/namespaces/inkscape"
   version="1.1"
   id="Layer_1"
   width="39.496"
   height="70.44"
   viewBox="0 0 39.496 70.44"
   overflow="visible"
   enable-background="new 0 0 39.496 70.44"
   xml:space="preserve"
   sodipodi:version="0.32"
   inkscape:version="0.45pre1"
   sodipodi:docname="Phone_tube_1.svg"
   inkscape:output_extension="org.inkscape.output.svg.inkscape"
   sodipodi:docbase="C:\Users\Alexei\AppData\Local\Temp\Rar$DI02.363"><metadata
   id="metadata16"><rdf:RDF><cc:Work
       rdf:about=""><dc:format>image/svg+xml</dc:format><dc:type
         rdf:resource="http://purl.org/dc/dcmitype/StillImage" /></cc:Work></rdf:RDF></metadata><defs
   id="defs14" /><sodipodi:namedview
   inkscape:window-height="575"
   inkscape:window-width="901"
   inkscape:pageshadow="2"
   inkscape:pageopacity="0.0"
   guidetolerance="10.0"
   gridtolerance="10.0"
   objecttolerance="10.0"
   borderopacity="1.0"
   bordercolor="#666666"
   pagecolor="#ffffff"
   id="base"
   inkscape:zoom="5.3520725"
   inkscape:cx="19.747999"
   inkscape:cy="35.220001"
   inkscape:window-x="56"
   inkscape:window-y="159"
   inkscape:current-layer="Layer_1" />
<g
   id="g3">
	<path
   fill="#3399BB"
   d="M18.085,60.64c-1.914-3.402-3.58-7.098-4.998-11.088c-1.387-3.908-2.409-7.779-3.065-11.615   c-0.655-3.834-0.944-7.631-0.868-11.393c2.109-2.418,4.484-4.354,7.123-5.807c1.123,1.328,1.967,2.785,2.53,4.372   c0.917,2.583,1.081,5.494,0.491,8.732l-0.578,0.205c-2.669,0.948,0.611,4.292,3.504,12.438c2.797,7.874,2.354,12.541,5.01,11.599   l0.574-0.204c2.369,2.35,4.006,4.791,4.906,7.328c0.537,1.51,0.906,3.111,1.105,4.803c-3.242,0.574-6.318,0.572-9.23-0.004   C22.168,67.165,19.999,64.042,18.085,60.64z"
   id="path5" />
	<path
   fill="#3399BB"
   d="M20.14,24.713c-0.507-1.428-1.36-2.914-2.562-4.46l1.145-0.407c1.826-0.648,3.182-0.742,4.065-0.283   c0.885,0.46,1.672,1.66,2.359,3.599c1.811,5.093,0.682,8.359-3.381,9.803l-0.981,0.349C21.321,30.302,21.106,27.435,20.14,24.713z"
   id="path7" />
	<path
   fill="#3399BB"
   d="M34.022,64.743c-1.025-2.887-2.66-5.33-4.908-7.328l1.232-0.438c3.836-1.361,6.672,0.549,8.512,5.729   c0.662,1.861,0.809,3.254,0.441,4.174c-0.367,0.921-1.373,1.672-3.016,2.256l-1.275,0.453   C34.927,67.978,34.599,66.361,34.022,64.743z"
   id="path9" />
</g>
<ellipse
   transform="matrix(0.1566 -0.9877 0.9877 0.1566 -14.4886 36.3716)"
   fill="none"
   cx="14.053"
   cy="26.67"
   rx="26.916"
   ry="13.57"
   id="ellipse11" />
</svg>